# xmcd CD database file
#
# Track frame offsets:
#	150
#	21093
#	37208
#
# Disc length: 814 seconds
#
# Revision: 0
# Processed by: cddbd v1.5PL3 Copyright (c) Steve Scherf et al.
# Submitted via: CDex 1.51
#
DISCID=20032c03
DTITLE=Lita - あたしがあたしであるうちに
DYEAR=1900
DGENRE=Japanese Pop
TTITLE0=あたしがあたしであるうちに
TTITLE1=遊女の戯れ
TTITLE2=あたしがあたしであるうちに (encore)
EXTD=
EXTT0=
EXTT1=
EXTT2=
PLAYORDER=
